<?xml version="1.0" encoding="utf-8"?><svg xmlns="http://www.w3.org/2000/svg" xmlns:xlink="http://www.w3.org/1999/xlink" width="1366" height="663" preserveAspectRatio="xMidYMid" viewBox="0 0 1366 663" style="z-index:1;margin-right:-2px;display:block;background-repeat-y:initial;background-repeat-x:initial;background-color:rgb(4, 38, 35);animation-play-state:paused" ><g transform="translate(683,331.5) scale(1,1) translate(-683,-331.5)" style="transform:matrix(1, 0, 0, 1, 0, 0);animation-play-state:paused" ><defs style="animation-play-state:paused" ><filter id="blur-ap1fso16b08-1" x="-1" y="-1" width="3" height="3" style="animation-play-state:paused" ><feGaussianBlur stdDeviation="3" style="animation-play-state:paused" ></feGaussianBlur></filter>
<filter id="blur-ap1fso16b08-2" x="-1" y="-1" width="3" height="3" style="animation-play-state:paused" ><feGaussianBlur stdDeviation="1.5" style="animation-play-state:paused" ></feGaussianBlur></filter>
<filter id="blur-ap1fso16b08-3" x="-1" y="-1" width="3" height="3" style="animation-play-state:paused" ><feGaussianBlur stdDeviation="1" style="animation-play-state:paused" ></feGaussianBlur></filter></defs>
<circle cx="1038.315862234119" cy="0" transform="matrix(1,0,0,1,0,178.53524780273438)" r="4.441895404523865" fill="#194039" opacity="0.36000000000000004" style="transform:matrix(1, 0, 0, 1, 0, 178.535);opacity:0.36;animation-play-state:paused" ></circle>
<circle cx="19.57281150256748" cy="0" transform="matrix(1,0,0,1,0,636.3287353515625)" r="15.595781479065913" fill="#8c856d" opacity="0.7200000000000001" style="transform:matrix(1, 0, 0, 1, 0, 636.329);opacity:0.72;animation-play-state:paused" ></circle>
<circle cx="173.02162549441547" cy="0" transform="matrix(1,0,0,1,0,218.08193969726562)" r="8.67166402200263" fill="#8c856d" opacity="0.63" style="transform:matrix(1, 0, 0, 1, 0, 218.082);opacity:0.63;animation-play-state:paused" ></circle>
<circle cx="991.1950986323561" cy="0" transform="matrix(1,0,0,1,0,487.33660888671875)" r="9.351110243074801" fill="#8c856d" opacity="0.63" style="transform:matrix(1, 0, 0, 1, 0, 487.337);opacity:0.63;animation-play-state:paused" ></circle>
<circle cx="114.31082237556407" cy="0" transform="matrix(1,0,0,1,0,67.837890625)" r="12.420815839471581" fill="#194039" opacity="0.7200000000000001" style="transform:matrix(1, 0, 0, 1, 0, 67.8379);opacity:0.72;animation-play-state:paused" ></circle>
<circle cx="55.812542399537186" cy="0" transform="matrix(1,0,0,1,0,233.50799560546875)" r="13.44118832626047" fill="#8c856d" opacity="0.7200000000000001" style="transform:matrix(1, 0, 0, 1, 0, 233.508);opacity:0.72;animation-play-state:paused" ></circle>
<circle cx="1235.1197682842849" cy="0" transform="matrix(1,0,0,1,0,74.77435302734375)" r="14.663598319516247" fill="#194039" opacity="0.7200000000000001" style="transform:matrix(1, 0, 0, 1, 0, 74.7744);opacity:0.72;animation-play-state:paused" ></circle>
<circle cx="1135.880237896227" cy="0" transform="matrix(1,0,0,1,0,8.3883056640625)" r="11.846465812596458" fill="#f2caa7" opacity="0.63" style="transform:matrix(1, 0, 0, 1, 0, 8.38831);opacity:0.63;animation-play-state:paused" ></circle>
<circle cx="658.2768951663345" cy="0" transform="matrix(1,0,0,1,0,169.49713134765625)" r="13.024114097136469" fill="#f2caa7" opacity="0.7200000000000001" style="transform:matrix(1, 0, 0, 1, 0, 169.497);opacity:0.72;animation-play-state:paused" ></circle>
<circle cx="166.08392432543943" cy="0" transform="matrix(1,0,0,1,0,352.3592529296875)" r="9.515906834359782" fill="#f2caa7" opacity="0.63" style="transform:matrix(1, 0, 0, 1, 0, 352.359);opacity:0.63;animation-play-state:paused" ></circle>
<circle cx="179.1992000373787" cy="0" transform="matrix(1,0,0,1,0,102.5224609375)" r="13.533483490122933" fill="#8c856d" opacity="0.7200000000000001" style="transform:matrix(1, 0, 0, 1, 0, 102.522);opacity:0.72;animation-play-state:paused" ></circle>
<circle cx="697.1810924674278" cy="0" transform="matrix(1,0,0,1,0,80.93878173828125)" r="9.105393535762982" fill="#f2caa7" opacity="0.63" style="transform:matrix(1, 0, 0, 1, 0, 80.9388);opacity:0.63;animation-play-state:paused" ></circle>
<circle cx="549.8020179029422" cy="0" transform="matrix(1,0,0,1,0,104.6612548828125)" r="12.351457014080088" fill="#194039" opacity="0.7200000000000001" style="transform:matrix(1, 0, 0, 1, 0, 104.661);opacity:0.72;animation-play-state:paused" ></circle>
<circle cx="1324.5894554592755" cy="0" transform="matrix(1,0,0,1,0,192.375244140625)" r="10.59544001075288" fill="#8c856d" opacity="0.63" style="transform:matrix(1, 0, 0, 1, 0, 192.375);opacity:0.63;animation-play-state:paused" ></circle>
<circle cx="829.8772863146104" cy="0" transform="matrix(1,0,0,1,0,329.25726318359375)" r="13.770773589570844" fill="#194039" opacity="0.7200000000000001" style="transform:matrix(1, 0, 0, 1, 0, 329.257);opacity:0.72;animation-play-state:paused" ></circle>
<circle cx="1032.7583590512354" cy="0" transform="matrix(1,0,0,1,0,296.7940979003906)" r="8.34372913907837" fill="#f2caa7" opacity="0.63" style="transform:matrix(1, 0, 0, 1, 0, 296.794);opacity:0.63;animation-play-state:paused" ></circle>
<circle cx="166.28841611117116" cy="0" transform="matrix(1,0,0,1,0,65.047119140625)" r="13.214012394221442" fill="#f2caa7" opacity="0.7200000000000001" style="transform:matrix(1, 0, 0, 1, 0, 65.0471);opacity:0.72;animation-play-state:paused" ></circle>
<circle cx="78.38272316303461" cy="0" transform="matrix(1,0,0,1,0,20.22027587890625)" r="5.659157485201624" fill="#194039" opacity="0.36000000000000004" style="transform:matrix(1, 0, 0, 1, 0, 20.2203);opacity:0.36;animation-play-state:paused" ></circle>
<circle cx="371.17724723149695" cy="0" transform="matrix(1,0,0,1,0,253.16845703125)" r="11.90276372990317" fill="#194039" opacity="0.63" style="transform:matrix(1, 0, 0, 1, 0, 253.168);opacity:0.63;animation-play-state:paused" ></circle>
<circle cx="760.0962349864598" cy="0" transform="matrix(1,0,0,1,0,167.49169921875)" r="15.260335324897822" fill="#194039" opacity="0.7200000000000001" style="transform:matrix(1, 0, 0, 1, 0, 167.492);opacity:0.72;animation-play-state:paused" ></circle>
<circle cx="1036.9215645455997" cy="0" transform="matrix(1,0,0,1,0,59.6192626953125)" r="8.708375741229078" fill="#f2caa7" opacity="0.63" style="transform:matrix(1, 0, 0, 1, 0, 59.6193);opacity:0.63;animation-play-state:paused" ></circle>
<circle cx="944.608200412082" cy="0" transform="matrix(1,0,0,1,0,381.6021423339844)" r="8.271787065461597" fill="#194039" opacity="0.63" style="transform:matrix(1, 0, 0, 1, 0, 381.602);opacity:0.63;animation-play-state:paused" ></circle>
<circle cx="604.3537024331063" cy="0" transform="matrix(1,0,0,1,0,517.64501953125)" r="7.940414845401003" fill="#f2caa7" opacity="0.36000000000000004" style="transform:matrix(1, 0, 0, 1, 0, 517.645);opacity:0.36;animation-play-state:paused" ></circle>
<circle cx="115.1722077381395" cy="0" transform="matrix(1,0,0,1,0,177.89230346679688)" r="11.013933031425594" fill="#f2caa7" opacity="0.63" style="transform:matrix(1, 0, 0, 1, 0, 177.892);opacity:0.63;animation-play-state:paused" ></circle>
<circle cx="1025.1418143757269" cy="0" transform="matrix(1,0,0,1,0,118.27392578125)" r="15.828782551991003" fill="#f2caa7" opacity="0.7200000000000001" style="transform:matrix(1, 0, 0, 1, 0, 118.274);opacity:0.72;animation-play-state:paused" ></circle>
<circle cx="204.1165355461159" cy="0" transform="matrix(1,0,0,1,0,173.0888671875)" r="9.359248198051827" fill="#194039" opacity="0.63" style="transform:matrix(1, 0, 0, 1, 0, 173.089);opacity:0.63;animation-play-state:paused" ></circle>
<circle cx="1021.5098412860108" cy="0" transform="matrix(1,0,0,1,0,474.01043701171875)" r="6.528253619361739" fill="#194039" opacity="0.36000000000000004" style="transform:matrix(1, 0, 0, 1, 0, 474.01);opacity:0.36;animation-play-state:paused" ></circle>
<circle cx="521.5111364839023" cy="0" transform="matrix(1,0,0,1,0,360.60943603515625)" r="12.457443976004823" fill="#194039" opacity="0.7200000000000001" style="transform:matrix(1, 0, 0, 1, 0, 360.609);opacity:0.72;animation-play-state:paused" ></circle>
<circle cx="1192.4652582024491" cy="0" transform="matrix(1,0,0,1,0,582.9669799804688)" r="13.020921890598991" fill="#f2caa7" opacity="0.7200000000000001" style="transform:matrix(1, 0, 0, 1, 0, 582.967);opacity:0.72;animation-play-state:paused" ></circle>
<circle cx="938.6841837072496" cy="0" transform="matrix(1,0,0,1,0,669.453369140625)" r="14.137949892273454" fill="#f2caa7" opacity="0.7200000000000001" style="transform:matrix(1, 0, 0, 1, 0, 669.453);opacity:0.72;animation-play-state:paused" ></circle>
<circle cx="631.0900369871083" cy="0" transform="matrix(1,0,0,1,0,99.32952880859375)" r="6.665202077408864" fill="#194039" opacity="0.36000000000000004" style="transform:matrix(1, 0, 0, 1, 0, 99.3295);opacity:0.36;animation-play-state:paused" ></circle>
<circle cx="81.88791603967124" cy="0" transform="matrix(1,0,0,1,0,372.23089599609375)" r="4.657757504877422" fill="#194039" opacity="0.36000000000000004" style="transform:matrix(1, 0, 0, 1, 0, 372.231);opacity:0.36;animation-play-state:paused" ></circle>
<circle cx="138.47218291754214" cy="0" transform="matrix(1,0,0,1,0,25.68743896484375)" r="13.486139142126243" fill="#f2caa7" opacity="0.7200000000000001" style="transform:matrix(1, 0, 0, 1, 0, 25.6874);opacity:0.72;animation-play-state:paused" ></circle>
<circle cx="992.066999204803" cy="0" transform="matrix(1,0,0,1,0,593.9796142578125)" r="5.159779455909146" fill="#f2caa7" opacity="0.36000000000000004" style="transform:matrix(1, 0, 0, 1, 0, 593.98);opacity:0.36;animation-play-state:paused" ></circle>
<circle cx="1238.7923267064532" cy="0" transform="matrix(1,0,0,1,0,629.0137939453125)" r="8.438298997724619" fill="#194039" opacity="0.63" style="transform:matrix(1, 0, 0, 1, 0, 629.014);opacity:0.63;animation-play-state:paused" ></circle>
<circle cx="940.7078250745648" cy="0" transform="matrix(1,0,0,1,0,-2.100341796875)" r="11.28492365940017" fill="#194039" opacity="0.63" style="transform:matrix(1, 0, 0, 1, 0, -2.10034);opacity:0.63;animation-play-state:paused" ></circle>
<circle cx="494.06445658036097" cy="0" transform="matrix(1,0,0,1,0,648.1820068359375)" r="9.478911642039865" fill="#8c856d" opacity="0.63" style="transform:matrix(1, 0, 0, 1, 0, 648.182);opacity:0.63;animation-play-state:paused" ></circle>
<circle cx="186.24084797243384" cy="0" transform="matrix(1,0,0,1,0,230.57107543945312)" r="6.303775632088395" fill="#f2caa7" opacity="0.36000000000000004" style="transform:matrix(1, 0, 0, 1, 0, 230.571);opacity:0.36;animation-play-state:paused" ></circle>
<circle cx="82.87838811987885" cy="0" transform="matrix(1,0,0,1,0,415.0004577636719)" r="8.453990728005628" fill="#194039" opacity="0.63" style="transform:matrix(1, 0, 0, 1, 0, 415);opacity:0.63;animation-play-state:paused" ></circle>
<circle cx="983.3530421536145" cy="0" transform="matrix(1,0,0,1,0,71.22607421875)" r="9.657431463758394" fill="#f2caa7" opacity="0.63" style="transform:matrix(1, 0, 0, 1, 0, 71.2261);opacity:0.63;animation-play-state:paused" ></circle>
<circle cx="1069.6301622805497" cy="0" transform="matrix(1,0,0,1,0,152.9454345703125)" r="7.6415529682496075" fill="#8c856d" opacity="0.36000000000000004" style="transform:matrix(1, 0, 0, 1, 0, 152.945);opacity:0.36;animation-play-state:paused" ></circle>
<circle cx="49.03775578501098" cy="0" transform="matrix(1,0,0,1,0,427.02960205078125)" r="5.548998984356582" fill="#8c856d" opacity="0.36000000000000004" style="transform:matrix(1, 0, 0, 1, 0, 427.03);opacity:0.36;animation-play-state:paused" ></circle>
<circle cx="179.68340105004526" cy="0" transform="matrix(1,0,0,1,0,63.73651123046875)" r="4.931519177167382" fill="#8c856d" opacity="0.36000000000000004" style="transform:matrix(1, 0, 0, 1, 0, 63.7365);opacity:0.36;animation-play-state:paused" ></circle>
<circle cx="1155.8375934982464" cy="0" transform="matrix(1,0,0,1,0,520.0244140625)" r="11.037861163904862" fill="#194039" opacity="0.63" style="transform:matrix(1, 0, 0, 1, 0, 520.024);opacity:0.63;animation-play-state:paused" ></circle>
<circle cx="963.3975938072157" cy="0" transform="matrix(1,0,0,1,0,80.00701904296875)" r="9.737190483333102" fill="#8c856d" opacity="0.63" style="transform:matrix(1, 0, 0, 1, 0, 80.007);opacity:0.63;animation-play-state:paused" ></circle>
<circle cx="801.0150610826834" cy="0" transform="matrix(1,0,0,1,0,61.03924560546875)" r="12.50781202352858" fill="#8c856d" opacity="0.7200000000000001" style="transform:matrix(1, 0, 0, 1, 0, 61.0392);opacity:0.72;animation-play-state:paused" ></circle>
<circle cx="1043.5186685114284" cy="0" transform="matrix(1,0,0,1,0,267.7537841796875)" r="6.042721597986129" fill="#194039" opacity="0.36000000000000004" style="transform:matrix(1, 0, 0, 1, 0, 267.754);opacity:0.36;animation-play-state:paused" ></circle>
<circle cx="155.13374730828255" cy="0" transform="matrix(1,0,0,1,0,640.3193359375)" r="14.791950889269136" fill="#f2caa7" opacity="0.7200000000000001" style="transform:matrix(1, 0, 0, 1, 0, 640.319);opacity:0.72;animation-play-state:paused" ></circle>
<circle cx="605.3868794741217" cy="0" transform="matrix(1,0,0,1,0,408.1905822753906)" r="8.74182787703775" fill="#8c856d" opacity="0.63" style="transform:matrix(1, 0, 0, 1, 0, 408.191);opacity:0.63;animation-play-state:paused" ></circle>
<circle cx="180.19219542303975" cy="0" transform="matrix(1,0,0,1,0,502.7255554199219)" r="11.808967361259475" fill="#8c856d" opacity="0.63" style="transform:matrix(1, 0, 0, 1, 0, 502.726);opacity:0.63;animation-play-state:paused" ></circle>
<circle cx="1209.5687035925735" cy="0" transform="matrix(1,0,0,1,0,236.6768798828125)" r="14.798851306617378" fill="#f2caa7" opacity="0.7200000000000001" style="transform:matrix(1, 0, 0, 1, 0, 236.677);opacity:0.72;animation-play-state:paused" ></circle>
<circle cx="179.74336434031807" cy="0" transform="matrix(1,0,0,1,0,-0.44140625)" r="5.678572831880952" fill="#194039" opacity="0.36000000000000004" style="transform:matrix(1, 0, 0, 1, 0, -0.441406);opacity:0.36;animation-play-state:paused" ></circle>
<circle cx="609.8980929282467" cy="0" transform="matrix(1,0,0,1,0,177.42013549804688)" r="12.877034460699065" fill="#8c856d" opacity="0.7200000000000001" style="transform:matrix(1, 0, 0, 1, 0, 177.42);opacity:0.72;animation-play-state:paused" ></circle>
<circle cx="1362.131865663414" cy="0" transform="matrix(1,0,0,1,0,578.1321411132812)" r="9.032326278046796" fill="#194039" opacity="0.63" style="transform:matrix(1, 0, 0, 1, 0, 578.132);opacity:0.63;animation-play-state:paused" ></circle>
<circle cx="1315.4329518650532" cy="0" transform="matrix(1,0,0,1,0,387.997802734375)" r="12.115370756840086" fill="#194039" opacity="0.7200000000000001" style="transform:matrix(1, 0, 0, 1, 0, 387.998);opacity:0.72;animation-play-state:paused" ></circle>
<circle cx="1073.501821798598" cy="0" transform="matrix(1,0,0,1,0,430.68914794921875)" r="11.862904891973855" fill="#8c856d" opacity="0.63" style="transform:matrix(1, 0, 0, 1, 0, 430.689);opacity:0.63;animation-play-state:paused" ></circle>
<circle cx="1180.107440681925" cy="0" transform="matrix(1,0,0,1,0,630.4649047851562)" r="5.12257315868628" fill="#194039" opacity="0.36000000000000004" style="transform:matrix(1, 0, 0, 1, 0, 630.465);opacity:0.36;animation-play-state:paused" ></circle>
<circle cx="317.8705469582128" cy="0" transform="matrix(1,0,0,1,0,661.9805297851562)" r="13.908960812623175" fill="#f2caa7" opacity="0.7200000000000001" style="transform:matrix(1, 0, 0, 1, 0, 661.981);opacity:0.72;animation-play-state:paused" ></circle>
<circle cx="57.819686702869525" cy="0" transform="matrix(1,0,0,1,0,430.8760986328125)" r="9.424524722037791" fill="#194039" opacity="0.63" style="transform:matrix(1, 0, 0, 1, 0, 430.876);opacity:0.63;animation-play-state:paused" ></circle>
<circle cx="289.2286894929945" cy="0" transform="matrix(1,0,0,1,0,177.04013061523438)" r="6.324264386144165" fill="#194039" opacity="0.36000000000000004" style="transform:matrix(1, 0, 0, 1, 0, 177.04);opacity:0.36;animation-play-state:paused" ></circle>
<circle cx="695.9110500904709" cy="0" transform="matrix(1,0,0,1,0,-8.96142578125)" r="14.858279599180346" fill="#8c856d" opacity="0.7200000000000001" style="transform:matrix(1, 0, 0, 1, 0, -8.96143);opacity:0.72;animation-play-state:paused" ></circle>
<circle cx="672.6324132471673" cy="0" transform="matrix(1,0,0,1,0,96.98907470703125)" r="15.873417567864822" fill="#f2caa7" opacity="0.7200000000000001" style="transform:matrix(1, 0, 0, 1, 0, 96.9891);opacity:0.72;animation-play-state:paused" ></circle>
<circle cx="1265.1029652498319" cy="0" transform="matrix(1,0,0,1,0,178.7364501953125)" r="7.5489259459298665" fill="#8c856d" opacity="0.36000000000000004" style="transform:matrix(1, 0, 0, 1, 0, 178.736);opacity:0.36;animation-play-state:paused" ></circle>
<circle cx="540.0304244398181" cy="0" transform="matrix(1,0,0,1,0,555.6241455078125)" r="13.884849965863772" fill="#f2caa7" opacity="0.7200000000000001" style="transform:matrix(1, 0, 0, 1, 0, 555.624);opacity:0.72;animation-play-state:paused" ></circle>
<circle cx="674.3228771578285" cy="0" transform="matrix(1,0,0,1,0,288.7547607421875)" r="10.206069201461519" fill="#194039" opacity="0.63" style="transform:matrix(1, 0, 0, 1, 0, 288.755);opacity:0.63;animation-play-state:paused" ></circle>
<circle cx="1347.4257870827544" cy="0" transform="matrix(1,0,0,1,0,530.662841796875)" r="9.249810334233372" fill="#8c856d" opacity="0.63" style="transform:matrix(1, 0, 0, 1, 0, 530.663);opacity:0.63;animation-play-state:paused" ></circle>
<circle cx="914.1966584153406" cy="0" transform="matrix(1,0,0,1,0,405.9886169433594)" r="14.36101665612238" fill="#194039" opacity="0.7200000000000001" style="transform:matrix(1, 0, 0, 1, 0, 405.989);opacity:0.72;animation-play-state:paused" ></circle>
<circle cx="737.0634878118112" cy="0" transform="matrix(1,0,0,1,0,-0.8907470703125)" r="15.364658798715414" fill="#8c856d" opacity="0.7200000000000001" style="transform:matrix(1, 0, 0, 1, 0, -0.890747);opacity:0.72;animation-play-state:paused" ></circle>
<circle cx="766.2097650608578" cy="0" transform="matrix(1,0,0,1,0,311.422607421875)" r="14.499835370309349" fill="#194039" opacity="0.7200000000000001" style="transform:matrix(1, 0, 0, 1, 0, 311.423);opacity:0.72;animation-play-state:paused" ></circle>
<circle cx="840.3107594688512" cy="0" transform="matrix(1,0,0,1,0,376.1026306152344)" r="10.673189772831796" fill="#f2caa7" opacity="0.63" style="transform:matrix(1, 0, 0, 1, 0, 376.103);opacity:0.63;animation-play-state:paused" ></circle>
<circle cx="1170.650241739519" cy="0" transform="matrix(1,0,0,1,0,385.646240234375)" r="9.126906435889527" fill="#f2caa7" opacity="0.63" style="transform:matrix(1, 0, 0, 1, 0, 385.646);opacity:0.63;animation-play-state:paused" ></circle></g></svg>