<?xml version="1.0" encoding="utf-8"?><svg xmlns="http://www.w3.org/2000/svg" xmlns:xlink="http://www.w3.org/1999/xlink" width="1366" height="663" preserveAspectRatio="xMidYMid" viewBox="0 0 1366 663" style="z-index:1;margin-right:-2px;display:block;background-repeat-y:initial;background-repeat-x:initial;background-color:rgb(241, 242, 243);animation-play-state:paused" ><g transform="translate(683,331.5) scale(1,1) translate(-683,-331.5)" style="transform:matrix(1, 0, 0, 1, 0, 0);animation-play-state:paused" ><g id="bk-0.7433882424133391" style="animation-play-state:paused" ><path d="M 606 347 L 514 269 L 528 365 Z" stroke="#ab9578" fill="#ab9578" style="animation-play-state:paused" ></path>
<path d="M 606 347 L 617 260 L 514 269 Z" stroke="#ad9679" fill="#ad9679" style="animation-play-state:paused" ></path>
<path d="M 408 467 L 518 469 L 528 365 Z" stroke="#a49275" fill="#a49275" style="animation-play-state:paused" ></path>
<path d="M 528 365 L 623 486 L 606 347 Z" stroke="#a09074" fill="#a09074" style="animation-play-state:paused" ></path>
<path d="M 531 157 L 420 260 L 514 269 Z" stroke="#bc9d7f" fill="#bc9d7f" style="animation-play-state:paused" ></path>
<path d="M 514 269 L 405 336 L 528 365 Z" stroke="#b0977a" fill="#b0977a" style="animation-play-state:paused" ></path>
<path d="M 617 260 L 531 157 L 514 269 Z" stroke="#b79b7d" fill="#b79b7d" style="animation-play-state:paused" ></path>
<path d="M 420 260 L 405 336 L 514 269 Z" stroke="#b79a7c" fill="#b79a7c" style="animation-play-state:paused" ></path>
<path d="M 730 362 L 723 273 L 606 347 Z" stroke="#a29174" fill="#a29174" style="animation-play-state:paused" ></path>
<path d="M 606 347 L 723 273 L 617 260 Z" stroke="#a89477" fill="#a89477" style="animation-play-state:paused" ></path>
<path d="M 617 260 L 630 171 L 531 157 Z" stroke="#ba9c7e" fill="#ba9c7e" style="animation-play-state:paused" ></path>
<path d="M 723 457 L 730 362 L 606 347 Z" stroke="#9a8d72" fill="#9a8d72" style="animation-play-state:paused" ></path>
<path d="M 518 469 L 623 486 L 528 365 Z" stroke="#9e8f73" fill="#9e8f73" style="animation-play-state:paused" ></path>
<path d="M 719 168 L 630 171 L 617 260 Z" stroke="#b59a7c" fill="#b59a7c" style="animation-play-state:paused" ></path>
<path d="M 623 486 L 723 457 L 606 347 Z" stroke="#988c71" fill="#988c71" style="animation-play-state:paused" ></path>
<path d="M 405 336 L 408 467 L 528 365 Z" stroke="#ab9578" fill="#ab9578" style="animation-play-state:paused" ></path>
<path d="M 531 157 L 420 145 L 420 260 Z" stroke="#c3a485" fill="#c3a485" style="animation-play-state:paused" ></path>
<path d="M 420 260 L 314 273 L 405 336 Z" stroke="#bb9c7e" fill="#bb9c7e" style="animation-play-state:paused" ></path>
<path d="M 438 79 L 420 145 L 531 157 Z" stroke="#cbaf90" fill="#cbaf90" style="animation-play-state:paused" ></path>
<path d="M 821 172 L 719 168 L 723 273 Z" stroke="#af9779" fill="#af9779" style="animation-play-state:paused" ></path>
<path d="M 723 273 L 719 168 L 617 260 Z" stroke="#ae9779" fill="#ae9779" style="animation-play-state:paused" ></path>
<path d="M 518 469 L 610 552 L 623 486 Z" stroke="#968b70" fill="#968b70" style="animation-play-state:paused" ></path>
<path d="M 623 486 L 702 542 L 723 457 Z" stroke="#90876e" fill="#90876e" style="animation-play-state:paused" ></path>
<path d="M 514 556 L 610 552 L 518 469 Z" stroke="#978b71" fill="#978b71" style="animation-play-state:paused" ></path>
<path d="M 826 453 L 805 349 L 730 362 Z" stroke="#948a70" fill="#948a70" style="animation-play-state:paused" ></path>
<path d="M 730 362 L 805 349 L 723 273 Z" stroke="#9e8f73" fill="#9e8f73" style="animation-play-state:paused" ></path>
<path d="M 420 145 L 314 273 L 420 260 Z" stroke="#c3a385" fill="#c3a385" style="animation-play-state:paused" ></path>
<path d="M 405 336 L 323 457 L 408 467 Z" stroke="#ad9678" fill="#ad9678" style="animation-play-state:paused" ></path>
<path d="M 398 553 L 514 556 L 518 469 Z" stroke="#9c8e72" fill="#9c8e72" style="animation-play-state:paused" ></path>
<path d="M 314 273 L 297 366 L 405 336 Z" stroke="#ba9c7e" fill="#ba9c7e" style="animation-play-state:paused" ></path>
<path d="M 408 467 L 398 553 L 518 469 Z" stroke="#a19174" fill="#a19174" style="animation-play-state:paused" ></path>
<path d="M 719 55 L 628 65 L 630 171 Z" stroke="#c4a687" fill="#c4a687" style="animation-play-state:paused" ></path>
<path d="M 630 171 L 628 65 L 531 157 Z" stroke="#c3a385" fill="#c3a385" style="animation-play-state:paused" ></path>
<path d="M 628 65 L 513 66 L 531 157 Z" stroke="#caad8e" fill="#caad8e" style="animation-play-state:paused" ></path>
<path d="M 805 349 L 825 256 L 723 273 Z" stroke="#a09074" fill="#a09074" style="animation-play-state:paused" ></path>
<path d="M 719 168 L 719 55 L 630 171 Z" stroke="#be9d7f" fill="#be9d7f" style="animation-play-state:paused" ></path>
<path d="M 610 552 L 702 542 L 623 486 Z" stroke="#90876e" fill="#90876e" style="animation-play-state:paused" ></path>
<path d="M 723 457 L 826 453 L 730 362 Z" stroke="#92886f" fill="#92886f" style="animation-play-state:paused" ></path>
<path d="M 629 660 L 702 542 L 610 552 Z" stroke="#8b846c" fill="#8b846c" style="animation-play-state:paused" ></path>
<path d="M 513 66 L 438 79 L 531 157 Z" stroke="#cdb192" fill="#cdb192" style="animation-play-state:paused" ></path>
<path d="M 420 145 L 316 140 L 314 273 Z" stroke="#caae8f" fill="#caae8f" style="animation-play-state:paused" ></path>
<path d="M 323 457 L 398 553 L 408 467 Z" stroke="#a79376" fill="#a79376" style="animation-play-state:paused" ></path>
<path d="M 297 366 L 323 457 L 405 336 Z" stroke="#b3997b" fill="#b3997b" style="animation-play-state:paused" ></path>
<path d="M 826 544 L 826 453 L 723 457 Z" stroke="#868269" fill="#868269" style="animation-play-state:paused" ></path>
<path d="M 937 368 L 921 252 L 825 256 Z" stroke="#9b8d72" fill="#9b8d72" style="animation-play-state:paused" ></path>
<path d="M 825 256 L 821 172 L 723 273 Z" stroke="#a89477" fill="#a89477" style="animation-play-state:paused" ></path>
<path d="M 836 79 L 719 55 L 719 168 Z" stroke="#bf9e80" fill="#bf9e80" style="animation-play-state:paused" ></path>
<path d="M 628 65 L 517 -30 L 513 66 Z" stroke="#d3bb9b" fill="#d3bb9b" style="animation-play-state:paused" ></path>
<path d="M 438 79 L 316 140 L 420 145 Z" stroke="#d0b697" fill="#d0b697" style="animation-play-state:paused" ></path>
<path d="M 314 273 L 228 268 L 297 366 Z" stroke="#c1a183" fill="#c1a183" style="animation-play-state:paused" ></path>
<path d="M 238 168 L 228 268 L 314 273 Z" stroke="#caad8e" fill="#caad8e" style="animation-play-state:paused" ></path>
<path d="M 297 366 L 243 373 L 323 457 Z" stroke="#b69a7c" fill="#b69a7c" style="animation-play-state:paused" ></path>
<path d="M 228 268 L 243 373 L 297 366 Z" stroke="#bf9f80" fill="#bf9f80" style="animation-play-state:paused" ></path>
<path d="M 323 457 L 341 567 L 398 553 Z" stroke="#a69376" fill="#a69376" style="animation-play-state:paused" ></path>
<path d="M 741 681 L 826 544 L 702 542 Z" stroke="#75785f" fill="#75785f" style="animation-play-state:paused" ></path>
<path d="M 702 542 L 826 544 L 723 457 Z" stroke="#868269" fill="#868269" style="animation-play-state:paused" ></path>
<path d="M 429 666 L 502 646 L 514 556 Z" stroke="#968a70" fill="#968a70" style="animation-play-state:paused" ></path>
<path d="M 514 556 L 629 660 L 610 552 Z" stroke="#90876e" fill="#90876e" style="animation-play-state:paused" ></path>
<path d="M 213 566 L 341 567 L 323 457 Z" stroke="#ab9578" fill="#ab9578" style="animation-play-state:paused" ></path>
<path d="M 398 553 L 429 666 L 514 556 Z" stroke="#9a8d72" fill="#9a8d72" style="animation-play-state:paused" ></path>
<path d="M 825 256 L 921 252 L 821 172 Z" stroke="#a69376" fill="#a69376" style="animation-play-state:paused" ></path>
<path d="M 821 172 L 836 79 L 719 168 Z" stroke="#b79b7c" fill="#b79b7c" style="animation-play-state:paused" ></path>
<path d="M 937 368 L 825 256 L 805 349 Z" stroke="#988c71" fill="#988c71" style="animation-play-state:paused" ></path>
<path d="M 937 368 L 805 349 L 826 453 Z" stroke="#90876e" fill="#90876e" style="animation-play-state:paused" ></path>
<path d="M 502 646 L 629 660 L 514 556 Z" stroke="#91886e" fill="#91886e" style="animation-play-state:paused" ></path>
<path d="M 615 -39 L 517 -30 L 628 65 Z" stroke="#d7c0a0" fill="#d7c0a0" style="animation-play-state:paused" ></path>
<path d="M 513 66 L 517 -30 L 438 79 Z" stroke="#d6be9f" fill="#d6be9f" style="animation-play-state:paused" ></path>
<path d="M 438 79 L 318 58 L 316 140 Z" stroke="#d6be9f" fill="#d6be9f" style="animation-play-state:paused" ></path>
<path d="M 719 55 L 615 -39 L 628 65 Z" stroke="#cfb596" fill="#cfb596" style="animation-play-state:paused" ></path>
<path d="M 922 175 L 836 79 L 821 172 Z" stroke="#b3997b" fill="#b3997b" style="animation-play-state:paused" ></path>
<path d="M 719 55 L 716 -43 L 615 -39 Z" stroke="#d3bb9b" fill="#d3bb9b" style="animation-play-state:paused" ></path>
<path d="M 923 461 L 937 368 L 826 453 Z" stroke="#868169" fill="#868169" style="animation-play-state:paused" ></path>
<path d="M 229 60 L 238 168 L 316 140 Z" stroke="#d7c1a1" fill="#d7c1a1" style="animation-play-state:paused" ></path>
<path d="M 316 140 L 238 168 L 314 273 Z" stroke="#cdb293" fill="#cdb293" style="animation-play-state:paused" ></path>
<path d="M 109 438 L 217 460 L 243 373 Z" stroke="#bc9d7f" fill="#bc9d7f" style="animation-play-state:paused" ></path>
<path d="M 397 -44 L 318 58 L 438 79 Z" stroke="#dcc8a9" fill="#dcc8a9" style="animation-play-state:paused" ></path>
<path d="M 243 373 L 217 460 L 323 457 Z" stroke="#b59a7c" fill="#b59a7c" style="animation-play-state:paused" ></path>
<path d="M 108 364 L 243 373 L 228 268 Z" stroke="#c4a587" fill="#c4a587" style="animation-play-state:paused" ></path>
<path d="M 341 567 L 429 666 L 398 553 Z" stroke="#9e8f73" fill="#9e8f73" style="animation-play-state:paused" ></path>
<path d="M 502 646 L 502 753 L 629 660 Z" stroke="#8e866e" fill="#8e866e" style="animation-play-state:paused" ></path>
<path d="M 707 775 L 741 681 L 629 660 Z" stroke="#72765d" fill="#72765d" style="animation-play-state:paused" ></path>
<path d="M 629 660 L 741 681 L 702 542 Z" stroke="#7b7b62" fill="#7b7b62" style="animation-play-state:paused" ></path>
<path d="M 824 -34 L 716 -43 L 719 55 Z" stroke="#d0b697" fill="#d0b697" style="animation-play-state:paused" ></path>
<path d="M 532 -118 L 397 -44 L 517 -30 Z" stroke="#e5d4b5" fill="#e5d4b5" style="animation-play-state:paused" ></path>
<path d="M 937 575 L 826 453 L 826 544 Z" stroke="#70755c" fill="#70755c" style="animation-play-state:paused" ></path>
<path d="M 937 575 L 923 461 L 826 453 Z" stroke="#72765d" fill="#72765d" style="animation-play-state:paused" ></path>
<path d="M 1008 258 L 922 175 L 921 252 Z" stroke="#a19074" fill="#a19074" style="animation-play-state:paused" ></path>
<path d="M 921 252 L 922 175 L 821 172 Z" stroke="#a99477" fill="#a99477" style="animation-play-state:paused" ></path>
<path d="M 1018 365 L 921 252 L 937 368 Z" stroke="#92896f" fill="#92896f" style="animation-play-state:paused" ></path>
<path d="M 532 -118 L 517 -30 L 615 -39 Z" stroke="#e2cfb0" fill="#e2cfb0" style="animation-play-state:paused" ></path>
<path d="M 517 -30 L 397 -44 L 438 79 Z" stroke="#ddc9a9" fill="#ddc9a9" style="animation-play-state:paused" ></path>
<path d="M 341 567 L 318 652 L 429 666 Z" stroke="#9f8f73" fill="#9f8f73" style="animation-play-state:paused" ></path>
<path d="M 213 566 L 318 652 L 341 567 Z" stroke="#a79376" fill="#a79376" style="animation-play-state:paused" ></path>
<path d="M 741 681 L 808 647 L 826 544 Z" stroke="#697158" fill="#697158" style="animation-play-state:paused" ></path>
<path d="M 109 438 L 213 566 L 217 460 Z" stroke="#b79b7d" fill="#b79b7d" style="animation-play-state:paused" ></path>
<path d="M 217 460 L 213 566 L 323 457 Z" stroke="#b1987a" fill="#b1987a" style="animation-play-state:paused" ></path>
<path d="M 808 647 L 937 575 L 826 544 Z" stroke="#636e55" fill="#636e55" style="animation-play-state:paused" ></path>
<path d="M 408 743 L 502 753 L 429 666 Z" stroke="#958a70" fill="#958a70" style="animation-play-state:paused" ></path>
<path d="M 429 666 L 502 753 L 502 646 Z" stroke="#93896f" fill="#93896f" style="animation-play-state:paused" ></path>
<path d="M 741 681 L 811 753 L 808 647 Z" stroke="#606c53" fill="#606c53" style="animation-play-state:paused" ></path>
<path d="M 318 58 L 229 60 L 316 140 Z" stroke="#dbc5a6" fill="#dbc5a6" style="animation-play-state:paused" ></path>
<path d="M 238 168 L 123 258 L 228 268 Z" stroke="#cfb495" fill="#cfb495" style="animation-play-state:paused" ></path>
<path d="M 228 -55 L 229 60 L 318 58 Z" stroke="#e5d4b5" fill="#e5d4b5" style="animation-play-state:paused" ></path>
<path d="M 922 175 L 902 36 L 836 79 Z" stroke="#b99c7e" fill="#b99c7e" style="animation-play-state:paused" ></path>
<path d="M 836 79 L 824 -34 L 719 55 Z" stroke="#c8aa8c" fill="#c8aa8c" style="animation-play-state:paused" ></path>
<path d="M 902 36 L 824 -34 L 836 79 Z" stroke="#c6a88a" fill="#c6a88a" style="animation-play-state:paused" ></path>
<path d="M 397 -44 L 323 -42 L 318 58 Z" stroke="#e5d3b4" fill="#e5d3b4" style="animation-play-state:paused" ></path>
<path d="M 130 147 L 123 258 L 238 168 Z" stroke="#d5be9f" fill="#d5be9f" style="animation-play-state:paused" ></path>
<path d="M 502 753 L 627 773 L 629 660 Z" stroke="#858169" fill="#858169" style="animation-play-state:paused" ></path>
<path d="M 1030 471 L 937 368 L 923 461 Z" stroke="#7a7b61" fill="#7a7b61" style="animation-play-state:paused" ></path>
<path d="M 1030 471 L 1018 365 L 937 368 Z" stroke="#807e65" fill="#807e65" style="animation-play-state:paused" ></path>
<path d="M 922 175 L 1017 166 L 902 36 Z" stroke="#b2987a" fill="#b2987a" style="animation-play-state:paused" ></path>
<path d="M 1018 365 L 1008 258 L 921 252 Z" stroke="#968b70" fill="#968b70" style="animation-play-state:paused" ></path>
<path d="M 123 258 L 108 364 L 228 268 Z" stroke="#cbaf90" fill="#cbaf90" style="animation-play-state:paused" ></path>
<path d="M 601 -137 L 615 -39 L 699 -136 Z" stroke="#e4d3b4" fill="#e4d3b4" style="animation-play-state:paused" ></path>
<path d="M 601 -137 L 532 -118 L 615 -39 Z" stroke="#e6d5b6" fill="#e6d5b6" style="animation-play-state:paused" ></path>
<path d="M 397 -44 L 324 -112 L 323 -42 Z" stroke="#eddfc0" fill="#eddfc0" style="animation-play-state:paused" ></path>
<path d="M 320 785 L 408 743 L 318 652 Z" stroke="#9d8e73" fill="#9d8e73" style="animation-play-state:paused" ></path>
<path d="M 318 652 L 408 743 L 429 666 Z" stroke="#9b8d72" fill="#9b8d72" style="animation-play-state:paused" ></path>
<path d="M 502 753 L 320 785 L 627 773 Z" stroke="#91886f" fill="#91886f" style="animation-play-state:paused" ></path>
<path d="M 699 -136 L 615 -39 L 716 -43 Z" stroke="#dec9aa" fill="#dec9aa" style="animation-play-state:paused" ></path>
<path d="M 627 773 L 707 775 L 629 660 Z" stroke="#777960" fill="#777960" style="animation-play-state:paused" ></path>
<path d="M 808 647 L 940 678 L 937 575 Z" stroke="#54654e" fill="#54654e" style="animation-play-state:paused" ></path>
<path d="M 229 60 L 130 147 L 238 168 Z" stroke="#dbc6a7" fill="#dbc6a7" style="animation-play-state:paused" ></path>
<path d="M 33 261 L 24 361 L 108 364 Z" stroke="#cfb595" fill="#cfb595" style="animation-play-state:paused" ></path>
<path d="M 24 361 L 109 438 L 108 364 Z" stroke="#c8aa8b" fill="#c8aa8b" style="animation-play-state:paused" ></path>
<path d="M 108 364 L 109 438 L 243 373 Z" stroke="#c2a284" fill="#c2a284" style="animation-play-state:paused" ></path>
<path d="M 213 566 L 197 639 L 318 652 Z" stroke="#aa9577" fill="#aa9577" style="animation-play-state:paused" ></path>
<path d="M 1116 240 L 1017 166 L 1008 258 Z" stroke="#9e8f73" fill="#9e8f73" style="animation-play-state:paused" ></path>
<path d="M 1008 258 L 1017 166 L 922 175 Z" stroke="#a49275" fill="#a49275" style="animation-play-state:paused" ></path>
<path d="M 601 -137 L 415 -134 L 532 -118 Z" stroke="#eee1c2" fill="#eee1c2" style="animation-play-state:paused" ></path>
<path d="M 532 -118 L 415 -134 L 397 -44 Z" stroke="#eddec0" fill="#eddec0" style="animation-play-state:paused" ></path>
<path d="M 1011 552 L 923 461 L 937 575 Z" stroke="#606c53" fill="#606c53" style="animation-play-state:paused" ></path>
<path d="M 1011 552 L 1030 471 L 923 461 Z" stroke="#646e55" fill="#646e55" style="animation-play-state:paused" ></path>
<path d="M 1018 365 L 1116 240 L 1008 258 Z" stroke="#948a70" fill="#948a70" style="animation-play-state:paused" ></path>
<path d="M 119 567 L 197 639 L 213 566 Z" stroke="#b1987a" fill="#b1987a" style="animation-play-state:paused" ></path>
<path d="M 822 -153 L 699 -136 L 716 -43 Z" stroke="#e1ceaf" fill="#e1ceaf" style="animation-play-state:paused" ></path>
<path d="M 601 -137 L 228 -136 L 415 -134 Z" stroke="#ece2c4" fill="#ece2c4" style="animation-play-state:paused" ></path>
<path d="M 822 -153 L 716 -43 L 824 -34 Z" stroke="#dac4a4" fill="#dac4a4" style="animation-play-state:paused" ></path>
<path d="M 914 736 L 940 678 L 808 647 Z" stroke="#4e614b" fill="#4e614b" style="animation-play-state:paused" ></path>
<path d="M 415 -134 L 324 -112 L 397 -44 Z" stroke="#f0e3c5" fill="#f0e3c5" style="animation-play-state:paused" ></path>
<path d="M 323 -42 L 228 -55 L 318 58 Z" stroke="#e8d8ba" fill="#e8d8ba" style="animation-play-state:paused" ></path>
<path d="M 229 60 L 100 63 L 130 147 Z" stroke="#e3d1b1" fill="#e3d1b1" style="animation-play-state:paused" ></path>
<path d="M 940 678 L 1011 552 L 937 575 Z" stroke="#4e614b" fill="#4e614b" style="animation-play-state:paused" ></path>
<path d="M 1015 55 L 930 -44 L 902 36 Z" stroke="#c4a687" fill="#c4a687" style="animation-play-state:paused" ></path>
<path d="M 902 36 L 930 -44 L 824 -34 Z" stroke="#ccb091" fill="#ccb091" style="animation-play-state:paused" ></path>
<path d="M 109 438 L 119 567 L 213 566 Z" stroke="#b89b7d" fill="#b89b7d" style="animation-play-state:paused" ></path>
<path d="M 324 -112 L 228 -55 L 323 -42 Z" stroke="#f1e4c6" fill="#f1e4c6" style="animation-play-state:paused" ></path>
<path d="M 707 775 L 811 753 L 741 681 Z" stroke="#636e55" fill="#636e55" style="animation-play-state:paused" ></path>
<path d="M 228 773 L 320 785 L 318 652 Z" stroke="#a29174" fill="#a29174" style="animation-play-state:paused" ></path>
<path d="M 408 743 L 320 785 L 502 753 Z" stroke="#978b71" fill="#978b71" style="animation-play-state:paused" ></path>
<path d="M 627 773 L 320 785 L 707 775 Z" stroke="#8a846c" fill="#8a846c" style="animation-play-state:paused" ></path>
<path d="M 1101 152 L 1015 55 L 1017 166 Z" stroke="#ae9779" fill="#ae9779" style="animation-play-state:paused" ></path>
<path d="M 1017 166 L 1015 55 L 902 36 Z" stroke="#b79b7d" fill="#b79b7d" style="animation-play-state:paused" ></path>
<path d="M 930 -44 L 822 -153 L 824 -34 Z" stroke="#d7c0a1" fill="#d7c0a1" style="animation-play-state:paused" ></path>
<path d="M 128 -21 L 100 63 L 229 60 Z" stroke="#eadbbc" fill="#eadbbc" style="animation-play-state:paused" ></path>
<path d="M 33 261 L 108 364 L 123 258 Z" stroke="#d0b696" fill="#d0b696" style="animation-play-state:paused" ></path>
<path d="M 1123 378 L 1018 365 L 1030 471 Z" stroke="#77795f" fill="#77795f" style="animation-play-state:paused" ></path>
<path d="M 1123 378 L 1116 240 L 1018 365 Z" stroke="#8d856d" fill="#8d856d" style="animation-play-state:paused" ></path>
<path d="M 33 261 L 123 258 L 130 147 Z" stroke="#d7c0a0" fill="#d7c0a0" style="animation-play-state:paused" ></path>
<path d="M 109 438 L 23 467 L 119 567 Z" stroke="#bf9f81" fill="#bf9f81" style="animation-play-state:paused" ></path>
<path d="M 811 753 L 914 736 L 808 647 Z" stroke="#53644d" fill="#53644d" style="animation-play-state:paused" ></path>
<path d="M 940 678 L 1035 669 L 1011 552 Z" stroke="#425a47" fill="#425a47" style="animation-play-state:paused" ></path>
<path d="M 27 154 L 33 261 L 130 147 Z" stroke="#ddc8a9" fill="#ddc8a9" style="animation-play-state:paused" ></path>
<path d="M 228 -55 L 128 -21 L 229 60 Z" stroke="#eddfc0" fill="#eddfc0" style="animation-play-state:paused" ></path>
<path d="M 18 65 L 27 154 L 130 147 Z" stroke="#e5d4b5" fill="#e5d4b5" style="animation-play-state:paused" ></path>
<path d="M 148 -115 L 128 -21 L 228 -55 Z" stroke="#ded8b9" fill="#ded8b9" style="animation-play-state:paused" ></path>
<path d="M 24 361 L 23 467 L 109 438 Z" stroke="#c7a98b" fill="#c7a98b" style="animation-play-state:paused" ></path>
<path d="M 197 639 L 228 773 L 318 652 Z" stroke="#a69376" fill="#a69376" style="animation-play-state:paused" ></path>
<path d="M 131 662 L 228 773 L 197 639 Z" stroke="#ac9678" fill="#ac9678" style="animation-play-state:paused" ></path>
<path d="M 131 662 L 197 639 L 119 567 Z" stroke="#b2987a" fill="#b2987a" style="animation-play-state:paused" ></path>
<path d="M 37 671 L 131 662 L 119 567 Z" stroke="#b69a7c" fill="#b69a7c" style="animation-play-state:paused" ></path>
<path d="M 18 65 L 130 147 L 100 63 Z" stroke="#e7d7b8" fill="#e7d7b8" style="animation-play-state:paused" ></path>
<path d="M 1109 475 L 1123 378 L 1030 471 Z" stroke="#677057" fill="#677057" style="animation-play-state:paused" ></path>
<path d="M 1109 475 L 1030 471 L 1118 556 Z" stroke="#54654e" fill="#54654e" style="animation-play-state:paused" ></path>
<path d="M 1118 556 L 1030 471 L 1011 552 Z" stroke="#52634d" fill="#52634d" style="animation-play-state:paused" ></path>
<path d="M 1116 240 L 1101 152 L 1017 166 Z" stroke="#a29175" fill="#a29175" style="animation-play-state:paused" ></path>
<path d="M 1015 55 L 1024 -53 L 930 -44 Z" stroke="#c8ab8c" fill="#c8ab8c" style="animation-play-state:paused" ></path>
<path d="M 930 -44 L 917 -135 L 822 -153 Z" stroke="#dbc6a7" fill="#dbc6a7" style="animation-play-state:paused" ></path>
<path d="M 1204 254 L 1101 152 L 1116 240 Z" stroke="#9b8e72" fill="#9b8e72" style="animation-play-state:paused" ></path>
<path d="M 1122 -57 L 1024 -53 L 1015 55 Z" stroke="#c6a98a" fill="#c6a98a" style="animation-play-state:paused" ></path>
<path d="M 1024 -53 L 917 -135 L 930 -44 Z" stroke="#d3bb9c" fill="#d3bb9c" style="animation-play-state:paused" ></path>
<path d="M 822 -153 L 1019 -152 L 699 -136 Z" stroke="#e3d1b2" fill="#e3d1b2" style="animation-play-state:paused" ></path>
<path d="M 415 -134 L 228 -136 L 324 -112 Z" stroke="#dad4b6" fill="#dad4b6" style="animation-play-state:paused" ></path>
<path d="M 324 -112 L 228 -136 L 228 -55 Z" stroke="#ddd7b8" fill="#ddd7b8" style="animation-play-state:paused" ></path>
<path d="M 699 -136 L 228 -136 L 601 -137 Z" stroke="#f0e3c4" fill="#f0e3c4" style="animation-play-state:paused" ></path>
<path d="M 1014 763 L 1035 669 L 940 678 Z" stroke="#375343" fill="#375343" style="animation-play-state:paused" ></path>
<path d="M 21 -39 L 100 63 L 128 -21 Z" stroke="#f2e6c8" fill="#f2e6c8" style="animation-play-state:paused" ></path>
<path d="M 21 -39 L 18 65 L 100 63 Z" stroke="#f2e5c7" fill="#f2e5c7" style="animation-play-state:paused" ></path>
<path d="M 1035 669 L 1118 556 L 1011 552 Z" stroke="#415946" fill="#415946" style="animation-play-state:paused" ></path>
<path d="M 1248 366 L 1204 254 L 1123 378 Z" stroke="#827f66" fill="#827f66" style="animation-play-state:paused" ></path>
<path d="M 23 467 L 8 547 L 119 567 Z" stroke="#c09f81" fill="#c09f81" style="animation-play-state:paused" ></path>
<path d="M 131 662 L 124 762 L 228 773 Z" stroke="#ad9678" fill="#ad9678" style="animation-play-state:paused" ></path>
<path d="M -62 473 L 8 547 L 23 467 Z" stroke="#c7a98a" fill="#c7a98a" style="animation-play-state:paused" ></path>
<path d="M -62 473 L 23 467 L 24 361 Z" stroke="#cbaf8f" fill="#cbaf8f" style="animation-play-state:paused" ></path>
<path d="M 1222 159 L 1134 65 L 1101 152 Z" stroke="#aa9577" fill="#aa9577" style="animation-play-state:paused" ></path>
<path d="M 1101 152 L 1134 65 L 1015 55 Z" stroke="#b2997b" fill="#b2997b" style="animation-play-state:paused" ></path>
<path d="M 1024 -53 L 1019 -152 L 917 -135 Z" stroke="#d9c3a3" fill="#d9c3a3" style="animation-play-state:paused" ></path>
<path d="M 228 -136 L 148 -115 L 228 -55 Z" stroke="#cbc9ab" fill="#cbc9ab" style="animation-play-state:paused" ></path>
<path d="M 37 671 L 124 762 L 131 662 Z" stroke="#b4997b" fill="#b4997b" style="animation-play-state:paused" ></path>
<path d="M 228 773 L 124 762 L 320 785 Z" stroke="#a79376" fill="#a79376" style="animation-play-state:paused" ></path>
<path d="M 914 736 L 1014 763 L 940 678 Z" stroke="#3c5745" fill="#3c5745" style="animation-play-state:paused" ></path>
<path d="M 1035 669 L 1122 656 L 1118 556 Z" stroke="#335141" fill="#335141" style="animation-play-state:paused" ></path>
<path d="M 811 753 L 1014 763 L 914 736 Z" stroke="#435a47" fill="#435a47" style="animation-play-state:paused" ></path>
<path d="M 707 775 L 1014 763 L 811 753 Z" stroke="#4f624c" fill="#4f624c" style="animation-play-state:paused" ></path>
<path d="M 320 785 L 1014 763 L 707 775 Z" stroke="#70755c" fill="#70755c" style="animation-play-state:paused" ></path>
<path d="M 148 -115 L 21 -39 L 128 -21 Z" stroke="#cccaac" fill="#cccaac" style="animation-play-state:paused" ></path>
<path d="M -68 153 L 33 261 L 27 154 Z" stroke="#e1cfb0" fill="#e1cfb0" style="animation-play-state:paused" ></path>
<path d="M -68 153 L -83 256 L 33 261 Z" stroke="#e0cdae" fill="#e0cdae" style="animation-play-state:paused" ></path>
<path d="M 8 547 L 37 671 L 119 567 Z" stroke="#bc9d7e" fill="#bc9d7e" style="animation-play-state:paused" ></path>
<path d="M 1122 -57 L 1019 -152 L 1024 -53 Z" stroke="#d2b99a" fill="#d2b99a" style="animation-play-state:paused" ></path>
<path d="M 917 -135 L 1019 -152 L 822 -153 Z" stroke="#e1ceae" fill="#e1ceae" style="animation-play-state:paused" ></path>
<path d="M 1202 464 L 1123 378 L 1109 475 Z" stroke="#606c54" fill="#606c54" style="animation-play-state:paused" ></path>
<path d="M 1123 378 L 1204 254 L 1116 240 Z" stroke="#90876e" fill="#90876e" style="animation-play-state:paused" ></path>
<path d="M -68 153 L 27 154 L 18 65 Z" stroke="#e9dabb" fill="#e9dabb" style="animation-play-state:paused" ></path>
<path d="M 33 261 L -82 345 L 24 361 Z" stroke="#d4bc9d" fill="#d4bc9d" style="animation-play-state:paused" ></path>
<path d="M 8 547 L -57 565 L 37 671 Z" stroke="#c1a182" fill="#c1a182" style="animation-play-state:paused" ></path>
<path d="M 1107 772 L 1122 656 L 1035 669 Z" stroke="#28493d" fill="#28493d" style="animation-play-state:paused" ></path>
<path d="M 1211 533 L 1202 464 L 1109 475 Z" stroke="#4c604a" fill="#4c604a" style="animation-play-state:paused" ></path>
<path d="M 1134 65 L 1122 -57 L 1015 55 Z" stroke="#bf9e80" fill="#bf9e80" style="animation-play-state:paused" ></path>
<path d="M 1231 -38 L 1122 -57 L 1134 65 Z" stroke="#c2a284" fill="#c2a284" style="animation-play-state:paused" ></path>
<path d="M -83 256 L -82 345 L 33 261 Z" stroke="#dac5a5" fill="#dac5a5" style="animation-play-state:paused" ></path>
<path d="M -82 345 L -62 473 L 24 361 Z" stroke="#d0b798" fill="#d0b798" style="animation-play-state:paused" ></path>
<path d="M 1211 533 L 1109 475 L 1118 556 Z" stroke="#465c48" fill="#465c48" style="animation-play-state:paused" ></path>
<path d="M -97 62 L -68 153 L 18 65 Z" stroke="#f0e3c5" fill="#f0e3c5" style="animation-play-state:paused" ></path>
<path d="M 1202 464 L 1248 366 L 1123 378 Z" stroke="#687057" fill="#687057" style="animation-play-state:paused" ></path>
<path d="M 1318 261 L 1222 159 L 1204 254 Z" stroke="#968b70" fill="#968b70" style="animation-play-state:paused" ></path>
<path d="M 1204 254 L 1222 159 L 1101 152 Z" stroke="#9f8f73" fill="#9f8f73" style="animation-play-state:paused" ></path>
<path d="M 1122 656 L 1211 533 L 1118 556 Z" stroke="#355242" fill="#355242" style="animation-play-state:paused" ></path>
<path d="M 1325 451 L 1312 361 L 1248 366 Z" stroke="#616d54" fill="#616d54" style="animation-play-state:paused" ></path>
<path d="M -67 664 L -57 565 L -162 572 Z" stroke="#c8ab8c" fill="#c8ab8c" style="animation-play-state:paused" ></path>
<path d="M -62 473 L -57 565 L 8 547 Z" stroke="#c7a98b" fill="#c7a98b" style="animation-play-state:paused" ></path>
<path d="M 148 -115 L 23 -137 L 21 -39 Z" stroke="#a6ae91" fill="#a6ae91" style="animation-play-state:paused" ></path>
<path d="M 21 -39 L -97 62 L 18 65 Z" stroke="#e3dbbc" fill="#e3dbbc" style="animation-play-state:paused" ></path>
<path d="M 228 -136 L 23 -137 L 148 -115 Z" stroke="#a3ab8f" fill="#a3ab8f" style="animation-play-state:paused" ></path>
<path d="M -77 744 L 31 782 L 37 671 Z" stroke="#bc9d7f" fill="#bc9d7f" style="animation-play-state:paused" ></path>
<path d="M 37 671 L 31 782 L 124 762 Z" stroke="#b69a7c" fill="#b69a7c" style="animation-play-state:paused" ></path>
<path d="M 124 762 L 31 782 L 320 785 Z" stroke="#ad9678" fill="#ad9678" style="animation-play-state:paused" ></path>
<path d="M -74 -52 L -97 62 L 21 -39 Z" stroke="#bec0a2" fill="#bec0a2" style="animation-play-state:paused" ></path>
<path d="M -160 163 L -184 250 L -83 256 Z" stroke="#e8d8b9" fill="#e8d8b9" style="animation-play-state:paused" ></path>
<path d="M -83 256 L -184 250 L -82 345 Z" stroke="#e0cdae" fill="#e0cdae" style="animation-play-state:paused" ></path>
<path d="M 1014 763 L 1107 772 L 1035 669 Z" stroke="#2a4b3e" fill="#2a4b3e" style="animation-play-state:paused" ></path>
<path d="M 1122 656 L 1220 642 L 1211 533 Z" stroke="#294a3e" fill="#294a3e" style="animation-play-state:paused" ></path>
<path d="M 1324 168 L 1233 63 L 1222 159 Z" stroke="#a69376" fill="#a69376" style="animation-play-state:paused" ></path>
<path d="M 1222 159 L 1233 63 L 1134 65 Z" stroke="#ae9779" fill="#ae9779" style="animation-play-state:paused" ></path>
<path d="M 1122 -57 L 1104 -153 L 1019 -152 Z" stroke="#d7c0a1" fill="#d7c0a1" style="animation-play-state:paused" ></path>
<path d="M 1214 -147 L 1104 -153 L 1122 -57 Z" stroke="#d5be9e" fill="#d5be9e" style="animation-play-state:paused" ></path>
<path d="M 1107 772 L 1220 642 L 1122 656 Z" stroke="#1e433b" fill="#1e433b" style="animation-play-state:paused" ></path>
<path d="M 1325 451 L 1248 366 L 1202 464 Z" stroke="#586750" fill="#586750" style="animation-play-state:paused" ></path>
<path d="M -162 572 L -57 565 L -62 473 Z" stroke="#cbaf90" fill="#cbaf90" style="animation-play-state:paused" ></path>
<path d="M -57 565 L -67 664 L 37 671 Z" stroke="#c1a183" fill="#c1a183" style="animation-play-state:paused" ></path>
<path d="M 1325 451 L 1202 464 L 1211 533 Z" stroke="#465c48" fill="#465c48" style="animation-play-state:paused" ></path>
<path d="M 1248 366 L 1312 361 L 1204 254 Z" stroke="#7e7d64" fill="#7e7d64" style="animation-play-state:paused" ></path>
<path d="M -160 163 L -83 256 L -68 153 Z" stroke="#e9d9ba" fill="#e9d9ba" style="animation-play-state:paused" ></path>
<path d="M -82 345 L -185 462 L -62 473 Z" stroke="#d3bb9c" fill="#d3bb9c" style="animation-play-state:paused" ></path>
<path d="M -67 -142 L -74 -52 L 21 -39 Z" stroke="#94a084" fill="#94a084" style="animation-play-state:paused" ></path>
<path d="M -186 75 L -160 163 L -68 153 Z" stroke="#f2e6c8" fill="#f2e6c8" style="animation-play-state:paused" ></path>
<path d="M 1317 66 L 1231 -38 L 1233 63 Z" stroke="#b89b7d" fill="#b89b7d" style="animation-play-state:paused" ></path>
<path d="M 1233 63 L 1231 -38 L 1134 65 Z" stroke="#ba9c7e" fill="#ba9c7e" style="animation-play-state:paused" ></path>
<path d="M -184 250 L -189 363 L -82 345 Z" stroke="#dfccad" fill="#dfccad" style="animation-play-state:paused" ></path>
<path d="M -189 363 L -185 462 L -82 345 Z" stroke="#dac4a5" fill="#dac4a5" style="animation-play-state:paused" ></path>
<path d="M -186 75 L -68 153 L -97 62 Z" stroke="#ebe1c3" fill="#ebe1c3" style="animation-play-state:paused" ></path>
<path d="M -184 250 L -265 382 L -189 363 Z" stroke="#e3d1b2" fill="#e3d1b2" style="animation-play-state:paused" ></path>
<path d="M 1335 581 L 1325 451 L 1211 533 Z" stroke="#345242" fill="#345242" style="animation-play-state:paused" ></path>
<path d="M 1436 283 L 1318 261 L 1427 360 Z" stroke="#7e7d64" fill="#7e7d64" style="animation-play-state:paused" ></path>
<path d="M 1312 361 L 1318 261 L 1204 254 Z" stroke="#8a846c" fill="#8a846c" style="animation-play-state:paused" ></path>
<path d="M 1318 261 L 1324 168 L 1222 159 Z" stroke="#9a8d72" fill="#9a8d72" style="animation-play-state:paused" ></path>
<path d="M -194 644 L -162 572 L -268 554 Z" stroke="#d2b99a" fill="#d2b99a" style="animation-play-state:paused" ></path>
<path d="M -185 462 L -162 572 L -62 473 Z" stroke="#d1b798" fill="#d1b798" style="animation-play-state:paused" ></path>
<path d="M 23 -137 L -67 -142 L 21 -39 Z" stroke="#8a997e" fill="#8a997e" style="animation-play-state:paused" ></path>
<path d="M -188 -48 L -186 75 L -97 62 Z" stroke="#b3b79a" fill="#b3b79a" style="animation-play-state:paused" ></path>
<path d="M -195 -138 L -67 -142 L 23 -137 Z" stroke="#617762" fill="#617762" style="animation-play-state:paused" ></path>
<path d="M -188 -48 L -97 62 L -74 -52 Z" stroke="#a5ad90" fill="#a5ad90" style="animation-play-state:paused" ></path>
<path d="M -288 254 L -265 382 L -184 250 Z" stroke="#e9dabb" fill="#e9dabb" style="animation-play-state:paused" ></path>
<path d="M -194 644 L -77 744 L -67 664 Z" stroke="#c7a98a" fill="#c7a98a" style="animation-play-state:paused" ></path>
<path d="M -67 664 L -77 744 L 37 671 Z" stroke="#c09f81" fill="#c09f81" style="animation-play-state:paused" ></path>
<path d="M 1231 -38 L 1214 -147 L 1122 -57 Z" stroke="#cdb393" fill="#cdb393" style="animation-play-state:paused" ></path>
<path d="M 1317 -56 L 1214 -147 L 1231 -38 Z" stroke="#ccb091" fill="#ccb091" style="animation-play-state:paused" ></path>
<path d="M 1413 162 L 1317 66 L 1324 168 Z" stroke="#a39275" fill="#a39275" style="animation-play-state:paused" ></path>
<path d="M 1324 168 L 1317 66 L 1233 63 Z" stroke="#ab9578" fill="#ab9578" style="animation-play-state:paused" ></path>
<path d="M 1014 763 L 1220 779 L 1107 772 Z" stroke="#1c423a" fill="#1c423a" style="animation-play-state:paused" ></path>
<path d="M 1107 772 L 1220 779 L 1220 642 Z" stroke="#183e38" fill="#183e38" style="animation-play-state:paused" ></path>
<path d="M 1302 652 L 1335 581 L 1211 533 Z" stroke="#21453b" fill="#21453b" style="animation-play-state:paused" ></path>
<path d="M 320 785 L 1220 779 L 1014 763 Z" stroke="#4e614b" fill="#4e614b" style="animation-play-state:paused" ></path>
<path d="M 1302 652 L 1211 533 L 1220 642 Z" stroke="#20453b" fill="#20453b" style="animation-play-state:paused" ></path>
<path d="M 1325 451 L 1427 360 L 1312 361 Z" stroke="#5d6a52" fill="#5d6a52" style="animation-play-state:paused" ></path>
<path d="M 1220 779 L 1302 652 L 1220 642 Z" stroke="#173d37" fill="#173d37" style="animation-play-state:paused" ></path>
<path d="M -162 572 L -194 644 L -67 664 Z" stroke="#cbaf90" fill="#cbaf90" style="animation-play-state:paused" ></path>
<path d="M -268 554 L -162 572 L -185 462 Z" stroke="#d5bd9e" fill="#d5bd9e" style="animation-play-state:paused" ></path>
<path d="M 1317 66 L 1317 -56 L 1231 -38 Z" stroke="#bf9e80" fill="#bf9e80" style="animation-play-state:paused" ></path>
<path d="M -288 254 L -184 250 L -160 163 Z" stroke="#eddfc1" fill="#eddfc1" style="animation-play-state:paused" ></path>
<path d="M -189 363 L -265 382 L -185 462 Z" stroke="#decaaa" fill="#decaaa" style="animation-play-state:paused" ></path>
<path d="M -195 -138 L -188 -48 L -74 -52 Z" stroke="#71846d" fill="#71846d" style="animation-play-state:paused" ></path>
<path d="M -286 134 L -288 254 L -160 163 Z" stroke="#ede2c4" fill="#ede2c4" style="animation-play-state:paused" ></path>
<path d="M -265 382 L -287 459 L -185 462 Z" stroke="#decaab" fill="#decaab" style="animation-play-state:paused" ></path>
<path d="M 1407 551 L 1325 451 L 1335 581 Z" stroke="#2c4c3f" fill="#2c4c3f" style="animation-play-state:paused" ></path>
<path d="M 1407 551 L 1405 442 L 1325 451 Z" stroke="#3a5543" fill="#3a5543" style="animation-play-state:paused" ></path>
<path d="M 1318 261 L 1413 162 L 1324 168 Z" stroke="#988c71" fill="#988c71" style="animation-play-state:paused" ></path>
<path d="M 1317 66 L 1412 61 L 1317 -56 Z" stroke="#b79b7d" fill="#b79b7d" style="animation-play-state:paused" ></path>
<path d="M 1436 283 L 1413 162 L 1318 261 Z" stroke="#91886f" fill="#91886f" style="animation-play-state:paused" ></path>
<path d="M -286 134 L -160 163 L -186 75 Z" stroke="#d8d3b5" fill="#d8d3b5" style="animation-play-state:paused" ></path>
<path d="M -265 382 L -288 254 L -287 459 Z" stroke="#e6d5b6" fill="#e6d5b6" style="animation-play-state:paused" ></path>
<path d="M 1427 360 L 1318 261 L 1312 361 Z" stroke="#77795f" fill="#77795f" style="animation-play-state:paused" ></path>
<path d="M 1405 442 L 1427 360 L 1325 451 Z" stroke="#51634c" fill="#51634c" style="animation-play-state:paused" ></path>
<path d="M -289 648 L -189 741 L -194 644 Z" stroke="#d1b798" fill="#d1b798" style="animation-play-state:paused" ></path>
<path d="M -194 644 L -189 741 L -77 744 Z" stroke="#caad8e" fill="#caad8e" style="animation-play-state:paused" ></path>
<path d="M -77 744 L -285 762 L 31 782 Z" stroke="#c5a788" fill="#c5a788" style="animation-play-state:paused" ></path>
<path d="M -282 67 L -286 134 L -186 75 Z" stroke="#b6ba9c" fill="#b6ba9c" style="animation-play-state:paused" ></path>
<path d="M 1393 -42 L 1318 -152 L 1317 -56 Z" stroke="#cbaf90" fill="#cbaf90" style="animation-play-state:paused" ></path>
<path d="M 1317 -56 L 1318 -152 L 1214 -147 Z" stroke="#d2b99a" fill="#d2b99a" style="animation-play-state:paused" ></path>
<path d="M 1214 -147 L 1318 -152 L 1104 -153 Z" stroke="#d9c3a4" fill="#d9c3a4" style="animation-play-state:paused" ></path>
<path d="M 1104 -153 L 1318 -152 L 1019 -152 Z" stroke="#dbc6a6" fill="#dbc6a6" style="animation-play-state:paused" ></path>
<path d="M 1436 672 L 1407 551 L 1335 581 Z" stroke="#173e37" fill="#173e37" style="animation-play-state:paused" ></path>
<path d="M 1220 779 L 1332 756 L 1302 652 Z" stroke="#143a34" fill="#143a34" style="animation-play-state:paused" ></path>
<path d="M -67 -142 L -195 -138 L -74 -52 Z" stroke="#6a7e68" fill="#6a7e68" style="animation-play-state:paused" ></path>
<path d="M -188 -48 L -282 67 L -186 75 Z" stroke="#9ea88b" fill="#9ea88b" style="animation-play-state:paused" ></path>
<path d="M 228 -136 L -195 -138 L 23 -137 Z" stroke="#7d8e75" fill="#7d8e75" style="animation-play-state:paused" ></path>
<path d="M -288 254 L -268 554 L -287 459 Z" stroke="#e2cfb0" fill="#e2cfb0" style="animation-play-state:paused" ></path>
<path d="M -287 459 L -268 554 L -185 462 Z" stroke="#dac5a6" fill="#dac5a6" style="animation-play-state:paused" ></path>
<path d="M 1436 672 L 1335 581 L 1302 652 Z" stroke="#163c36" fill="#163c36" style="animation-play-state:paused" ></path>
<path d="M 1509 351 L 1436 283 L 1427 360 Z" stroke="#6f745b" fill="#6f745b" style="animation-play-state:paused" ></path>
<path d="M 1495 62 L 1412 61 L 1413 162 Z" stroke="#a89477" fill="#a89477" style="animation-play-state:paused" ></path>
<path d="M 1413 162 L 1412 61 L 1317 66 Z" stroke="#a99477" fill="#a99477" style="animation-play-state:paused" ></path>
<path d="M -269 -34 L -282 67 L -188 -48 Z" stroke="#809077" fill="#809077" style="animation-play-state:paused" ></path>
<path d="M -268 554 L -289 648 L -194 644 Z" stroke="#d5bd9e" fill="#d5bd9e" style="animation-play-state:paused" ></path>
<path d="M -285 762 L -289 648 L -268 554 Z" stroke="#d6bfa0" fill="#d6bfa0" style="animation-play-state:paused" ></path>
<path d="M 1495 62 L 1393 -42 L 1412 61 Z" stroke="#b59a7c" fill="#b59a7c" style="animation-play-state:paused" ></path>
<path d="M 1412 61 L 1393 -42 L 1317 -56 Z" stroke="#be9d7f" fill="#be9d7f" style="animation-play-state:paused" ></path>
<path d="M -279 -135 L -269 -34 L -188 -48 Z" stroke="#5a715d" fill="#5a715d" style="animation-play-state:paused" ></path>
<path d="M -282 67 L -269 -34 L -286 134 Z" stroke="#97a387" fill="#97a387" style="animation-play-state:paused" ></path>
<path d="M 1407 743 L 1436 672 L 1302 652 Z" stroke="#123832" fill="#123832" style="animation-play-state:paused" ></path>
<path d="M 1509 351 L 1427 360 L 1507 460 Z" stroke="#55664f" fill="#55664f" style="animation-play-state:paused" ></path>
<path d="M 1509 351 L 1499 242 L 1436 283 Z" stroke="#7e7d64" fill="#7e7d64" style="animation-play-state:paused" ></path>
<path d="M 1436 283 L 1499 242 L 1413 162 Z" stroke="#91886f" fill="#91886f" style="animation-play-state:paused" ></path>
<path d="M 1427 360 L 1405 442 L 1507 460 Z" stroke="#4b604a" fill="#4b604a" style="animation-play-state:paused" ></path>
<path d="M 1507 460 L 1405 442 L 1407 551 Z" stroke="#345141" fill="#345141" style="animation-play-state:paused" ></path>
<path d="M 1332 756 L 1407 743 L 1302 652 Z" stroke="#123832" fill="#123832" style="animation-play-state:paused" ></path>
<path d="M 1530 576 L 1507 460 L 1407 551 Z" stroke="#21453b" fill="#21453b" style="animation-play-state:paused" ></path>
<path d="M -288 254 L -285 762 L -268 554 Z" stroke="#dcc7a7" fill="#dcc7a7" style="animation-play-state:paused" ></path>
<path d="M -289 648 L -285 762 L -189 741 Z" stroke="#d2ba9a" fill="#d2ba9a" style="animation-play-state:paused" ></path>
<path d="M -189 741 L -285 762 L -77 744 Z" stroke="#ccb091" fill="#ccb091" style="animation-play-state:paused" ></path>
<path d="M 1512 -139 L 1399 -138 L 1393 -42 Z" stroke="#ceb394" fill="#ceb394" style="animation-play-state:paused" ></path>
<path d="M 1393 -42 L 1399 -138 L 1318 -152 Z" stroke="#cfb596" fill="#cfb596" style="animation-play-state:paused" ></path>
<path d="M 1318 -152 L 1399 -138 L 1019 -152 Z" stroke="#d8c2a2" fill="#d8c2a2" style="animation-play-state:paused" ></path>
<path d="M 1499 242 L 1527 153 L 1413 162 Z" stroke="#988c71" fill="#988c71" style="animation-play-state:paused" ></path>
<path d="M 1647 172 L 1527 153 L 1499 242 Z" stroke="#968b70" fill="#968b70" style="animation-play-state:paused" ></path>
<path d="M 1646 273 L 1499 242 L 1509 351 Z" stroke="#7d7c63" fill="#7d7c63" style="animation-play-state:paused" ></path>
<path d="M 228 -136 L -279 -135 L -195 -138 Z" stroke="#627863" fill="#627863" style="animation-play-state:paused" ></path>
<path d="M -195 -138 L -279 -135 L -188 -48 Z" stroke="#4e6755" fill="#4e6755" style="animation-play-state:paused" ></path>
<path d="M -269 -34 L -279 -135 L -286 134 Z" stroke="#72856d" fill="#72856d" style="animation-play-state:paused" ></path>
<path d="M -286 134 L -279 -135 L -288 254 Z" stroke="#a6ae91" fill="#a6ae91" style="animation-play-state:paused" ></path>
<path d="M 699 -136 L -279 -135 L 228 -136 Z" stroke="#b6b99c" fill="#b6b99c" style="animation-play-state:paused" ></path>
<path d="M 1019 -152 L -279 -135 L 699 -136 Z" stroke="#f2e6c7" fill="#f2e6c7" style="animation-play-state:paused" ></path>
<path d="M 1399 -138 L -279 -135 L 1019 -152 Z" stroke="#e7d7b8" fill="#e7d7b8" style="animation-play-state:paused" ></path>
<path d="M 1527 153 L 1495 62 L 1413 162 Z" stroke="#a29175" fill="#a29175" style="animation-play-state:paused" ></path>
<path d="M 1519 660 L 1530 576 L 1436 672 Z" stroke="#133833" fill="#133833" style="animation-play-state:paused" ></path>
<path d="M 1436 672 L 1530 576 L 1407 551 Z" stroke="#163c36" fill="#163c36" style="animation-play-state:paused" ></path>
<path d="M 1507 460 L 1607 368 L 1509 351 Z" stroke="#52644d" fill="#52644d" style="animation-play-state:paused" ></path>
<path d="M 1610 34 L 1495 62 L 1527 153 Z" stroke="#a99477" fill="#a99477" style="animation-play-state:paused" ></path>
<path d="M 1610 34 L 1531 -44 L 1495 62 Z" stroke="#b69a7c" fill="#b69a7c" style="animation-play-state:paused" ></path>
<path d="M 1495 62 L 1531 -44 L 1393 -42 Z" stroke="#bb9c7e" fill="#bb9c7e" style="animation-play-state:paused" ></path>
<path d="M 1492 754 L 1519 660 L 1436 672 Z" stroke="#0f342f" fill="#0f342f" style="animation-play-state:paused" ></path>
<path d="M 1332 756 L 1492 754 L 1407 743 Z" stroke="#0f342f" fill="#0f342f" style="animation-play-state:paused" ></path>
<path d="M 1407 743 L 1492 754 L 1436 672 Z" stroke="#0f342f" fill="#0f342f" style="animation-play-state:paused" ></path>
<path d="M 1610 461 L 1530 576 L 1622 563 Z" stroke="#1a4039" fill="#1a4039" style="animation-play-state:paused" ></path>
<path d="M 1610 461 L 1507 460 L 1530 576 Z" stroke="#284a3e" fill="#284a3e" style="animation-play-state:paused" ></path>
<path d="M 1610 461 L 1607 368 L 1507 460 Z" stroke="#425a47" fill="#425a47" style="animation-play-state:paused" ></path>
<path d="M 1644 -116 L 1512 -139 L 1531 -44 Z" stroke="#cbaf90" fill="#cbaf90" style="animation-play-state:paused" ></path>
<path d="M 1531 -44 L 1512 -139 L 1393 -42 Z" stroke="#c7aa8b" fill="#c7aa8b" style="animation-play-state:paused" ></path>
<path d="M 1622 563 L 1530 576 L 1619 647 Z" stroke="#143a34" fill="#143a34" style="animation-play-state:paused" ></path>
<path d="M 1622 563 L 1646 273 L 1607 368 Z" stroke="#4c604b" fill="#4c604b" style="animation-play-state:paused" ></path>
<path d="M 1607 368 L 1646 273 L 1509 351 Z" stroke="#6a7258" fill="#6a7258" style="animation-play-state:paused" ></path>
<path d="M 1647 172 L 1610 34 L 1527 153 Z" stroke="#a29174" fill="#a29174" style="animation-play-state:paused" ></path>
<path d="M 1646 273 L 1647 172 L 1499 242 Z" stroke="#8f876e" fill="#8f876e" style="animation-play-state:paused" ></path>
<path d="M 1619 647 L 1530 576 L 1519 660 Z" stroke="#123832" fill="#123832" style="animation-play-state:paused" ></path>
<path d="M 1610 461 L 1622 563 L 1607 368 Z" stroke="#335141" fill="#335141" style="animation-play-state:paused" ></path>
<path d="M 1595 733 L 1619 647 L 1519 660 Z" stroke="#0e332e" fill="#0e332e" style="animation-play-state:paused" ></path>
<path d="M 1647 172 L 1620 -24 L 1610 34 Z" stroke="#ad9678" fill="#ad9678" style="animation-play-state:paused" ></path>
<path d="M 1610 34 L 1620 -24 L 1531 -44 Z" stroke="#bb9c7e" fill="#bb9c7e" style="animation-play-state:paused" ></path>
<path d="M 1332 756 L 1595 733 L 1492 754 Z" stroke="#0d322d" fill="#0d322d" style="animation-play-state:paused" ></path>
<path d="M 1492 754 L 1595 733 L 1519 660 Z" stroke="#0d312d" fill="#0d312d" style="animation-play-state:paused" ></path>
<path d="M 1619 647 L 1595 733 L 1622 563 Z" stroke="#103530" fill="#103530" style="animation-play-state:paused" ></path>
<path d="M 1220 779 L 1595 733 L 1332 756 Z" stroke="#103530" fill="#103530" style="animation-play-state:paused" ></path>
<path d="M 1647 172 L 1644 -116 L 1620 -24 Z" stroke="#b69a7c" fill="#b69a7c" style="animation-play-state:paused" ></path>
<path d="M 1620 -24 L 1644 -116 L 1531 -44 Z" stroke="#c4a587" fill="#c4a587" style="animation-play-state:paused" ></path></g>
<style type="text/css" style="animation-play-state:paused" >#bk-0.7433882424133391 path { stroke-width: 1 }</style></g></svg>